<svg fill="currentColor"
    height="50"
    width="50"
    viewBox="0 0 50 50"
    xmlns="http://www.w3.org/2000/svg">
    <title>Artboard 1</title>
    <rect x="41"
        y="6"
        width="9"
        height="3" />
    <rect x="41"
        width="3"
        height="9" />
    <rect x="6"
        width="3"
        height="9" />
    <rect y="6"
        width="9"
        height="3" />
    <rect x="41"
        y="41"
        width="3"
        height="9" />
    <rect x="41"
        y="41"
        width="9"
        height="3" />
    <rect y="41"
        width="9"
        height="3" />
    <rect x="6"
        y="41"
        width="3"
        height="9" />
    <circle cx="30.5"
        cy="18.5"
        r="2" />
    <polygon points="40 40 10 40 10 33 21 22 40 40" />
    <path d="M10,10V40H40V10ZM37,37H13V13H37Z" />
    <polygon points="34 25 29.671 28.82 39.663 38.302 38.974 39.027 28.918 29.484 17 40 40 40 40 30 34 25" />
</svg>
