<svg fill="currentColor"
    height="50"
    width="50"
    viewBox="0 0 50 50"
    xmlns="http://www.w3.org/2000/svg">
    <path d="M38.111,38.1592a3.7884,3.7884,0,0,0-2.964,1.4223h0a3.7948,3.7948,0,0,0,.5889,5.3343l5.4039,4.33a3.7949,3.7949,0,0,0,4.7455-5.9232l-5.404-4.3295a3.7787,3.7787,0,0,0-2.37-.8334Z" />
    <path d="M23.5,13A16.5,16.5,0,1,0,40,29.5,16.5,16.5,0,0,0,23.5,13Zm0,30A13.5,13.5,0,1,1,37,29.5,13.5,13.5,0,0,1,23.5,43Z" />
    <path d="M20.7639,35.2426a1.6267,1.6267,0,0,1,.1094-.6719c.0936-.2457.1628-.5007.2434-.7515.0562-.1748.1146-.3489.17-.5239.0628-.1974.1231-.3956.1858-.5931.0834-.2624.1682-.5244.2524-.7866.0509-.1586.1009-.3175.1527-.4758.0814-.249.1657-.4971.2458-.7466.0771-.2405.1485-.4828.2258-.7232.0581-.18.1241-.3585.1819-.5391.0784-.2451.1495-.4925.2292-.7371.0627-.1923.1364-.3809.2-.5729.0491-.1482.0873-.3.1357-.4483.0687-.2107.1437-.4192.2132-.63.0474-.1438.0894-.29.1348-.434s.0926-.2888.1379-.4336c.0712-.2276.139-.4563.2129-.6829.0645-.1977.1373-.3927.203-.59.0509-.1528.0958-.3075.1445-.461.0625-.1972.1264-.3939.189-.5911.0527-.1661.104-.3328.1566-.499a1.2148,1.2148,0,0,1,.7236-.85,1.12,1.12,0,0,1,1.4546.6843,1.1506,1.1506,0,0,1,.0036.6988c-.093.3129-.2061.62-.3053.9309-.144.4519-.2809.9061-.4255,1.3578-.1039.3242-.2184.6451-.323.9691-.126.3907-.2445.7837-.37,1.1745-.1055.3279-.2184.6534-.3244.9812-.069.2134-.1288.43-.1979.6434-.0669.2064-.1411.41-.2109.6159-.0281.0826-.0533.1661-.08.2493q-.0972.3095-.1941.6191c-.071.2275-.14.4556-.2129.6827-.0591.1852-.1219.3692-.1827.5538q-.0842.255-.1671.51c-.0622.1927-.1228.3859-.1846.5786q-.0777.2422-.1564.484c-.0659.202-.1331.4035-.1982.6056-.0534.166-.1032.3332-.1573.499a1.24,1.24,0,0,1-.5064.7315,1.1046,1.1046,0,0,1-.8579.1569,1.0869,1.0869,0,0,1-.7263-.5366A.8622.8622,0,0,1,20.7639,35.2426Z" />
    <path d="M30.73,29.3472c-.3391-.1542-.6471-.2913-.9526-.434-.2712-.1266-.5387-.2613-.8094-.389-.2143-.1012-.4317-.1959-.6465-.296-.28-.1305-.5565-.268-.8383-.3938a2.5224,2.5224,0,0,1-.4569-.24,1.1182,1.1182,0,0,1,.0792-1.857,1.0456,1.0456,0,0,1,.5923-.1414,1.3944,1.3944,0,0,1,.63.1695c.2166.1121.443.2051.6643.3084.3439.1607.6868.3238,1.0308.4845q.3943.1841.79.3647.6051.2775,1.2109.5537c.2446.112.49.2225.733.338.27.1284.535.268.8078.39a3.8769,3.8769,0,0,1,.4228.2247.8926.8926,0,0,1,.2975.2962,1.1537,1.1537,0,0,1,.108,1.0774,1.2377,1.2377,0,0,1-.6786.6705c-.3358.1592-.6759.3094-1.0126.4667-.2772.1294-.5515.2652-.8286.3949-.2046.0959-.4123.1852-.6174.28-.3235.1493-.6455.3019-.9691.4508-.33.1519-.6616.2992-.9909.4519-.3784.1753-.7537.3571-1.1328.5308a1.0709,1.0709,0,0,1-.9732-.01,1.1079,1.1079,0,0,1-.6018-.7831,1.0548,1.0548,0,0,1,.0707-.6407A1.1438,1.1438,0,0,1,27.2757,31c.276-.1268.5465-.2655.8218-.3938.2234-.1041.4519-.1975.6755-.3012.2716-.1259.54-.2595.8109-.3864.2228-.1044.448-.2036.6719-.3057.13-.0592.26-.1177.3883-.1807C30.6718,29.419,30.6905,29.3872,30.73,29.3472Z" />
    <path d="M16.7359,29.3479a.5847.5847,0,0,0,.1041.09c.1839.0843.3709.1618.5547.2464.2567.1182.5116.24.767.3614.3775.179.7543.3592,1.1322.5374.3446.1626.6954.3129,1.0336.4879a1.0194,1.0194,0,0,1,.5149.6324,1.18,1.18,0,0,1,.0465.4793,1.0535,1.0535,0,0,1-.3384.672,1.099,1.099,0,0,1-.4653.2657.9594.9594,0,0,1-.5876-.0042c-.2247-.0827-.4416-.1872-.66-.2855-.3248-.1459-.65-.2916-.9721-.4431-.39-.1833-.7747-.3762-1.1649-.5581-.3586-.1671-.7229-.3221-1.0819-.4883-.4244-.1963-.8457-.3994-1.2689-.5985-.2273-.1069-.459-.2054-.6825-.32a1.2053,1.2053,0,0,1-.385-.2856,1.16,1.16,0,0,1-.2736-.9144,1.0578,1.0578,0,0,1,.3935-.732,1.9894,1.9894,0,0,1,.459-.2688c.2775-.1234.5485-.2615.8231-.3916.0941-.0445.1913-.0824.286-.1257.192-.0878.3827-.1784.5749-.2658.329-.15.66-.2955.9878-.448.2713-.1262.5385-.2614.8089-.39.21-.1.4227-.195.6336-.2934q.4311-.201.8612-.4038c.1576-.0742.3117-.157.4726-.2232a1.3206,1.3206,0,0,1,.5559-.0813,1.0224,1.0224,0,0,1,.94.65,1.0573,1.0573,0,0,1,.002.8865,1.1547,1.1547,0,0,1-.6566.6256c-.2068.0867-.4047.1944-.6075.2907q-.4653.2208-.932.4388-.681.3181-1.3633.634C17.0911,29.1969,16.9315,29.2629,16.7359,29.3479Z" />
    <path d="M44.1758,39.5l-3.207-2.5693q.0907-.2139.1767-.4307H44A2.5026,2.5026,0,0,0,46.5,34V9.5H3.5V34a2.504,2.504,0,0,0,2.3525,2.4961A19.1236,19.1236,0,0,0,7.353,39.5H3A2.5026,2.5026,0,0,1,.5,37V3A2.503,2.503,0,0,1,3,.5H47A2.503,2.503,0,0,1,49.5,3V37A2.5026,2.5026,0,0,1,47,39.5ZM43,2.5A1.5017,1.5017,0,0,0,41.5,4V6A1.5017,1.5017,0,0,0,43,7.5h2A1.5017,1.5017,0,0,0,46.5,6V4A1.5017,1.5017,0,0,0,45,2.5Zm-6,0A1.5017,1.5017,0,0,0,35.5,4V6A1.5017,1.5017,0,0,0,37,7.5h2A1.5017,1.5017,0,0,0,40.5,6V4A1.5017,1.5017,0,0,0,39,2.5Zm-6,0A1.5017,1.5017,0,0,0,29.5,4V6A1.5017,1.5017,0,0,0,31,7.5h2A1.5017,1.5017,0,0,0,34.5,6V4A1.5017,1.5017,0,0,0,33,2.5Z" />
    <path d="M47,1a2.0023,2.0023,0,0,1,2,2V37a2.0023,2.0023,0,0,1-2,2H44.3512l-2.4963-2H44a3.0034,3.0034,0,0,0,3-3V9H3V34a3.0049,3.0049,0,0,0,2.5,2.9584A19.8032,19.8032,0,0,0,6.4817,39H3a2.0023,2.0023,0,0,1-2-2V3A2.0023,2.0023,0,0,1,3,1H47M41,4a2.0023,2.0023,0,0,0-2-2H37a2.0023,2.0023,0,0,0-2,2,2.0023,2.0023,0,0,0-2-2H31a2.0023,2.0023,0,0,0-2,2V6a2.0023,2.0023,0,0,0,2,2h2a2.0023,2.0023,0,0,0,2-2,2.0023,2.0023,0,0,0,2,2h2a2.0023,2.0023,0,0,0,2-2,2.0023,2.0023,0,0,0,2,2h2a2.0023,2.0023,0,0,0,2-2V4a2.0023,2.0023,0,0,0-2-2H43a2.0023,2.0023,0,0,0-2,2m6-4H3A3,3,0,0,0,0,3V37a3,3,0,0,0,3,3H8.2766a18.4292,18.4292,0,0,1-2.0793-4H6a2,2,0,0,1-2-2V10H46V34a2,2,0,0,1-2,2H40.8028q-.2068.55-.4462,1.0839l.019.0123L44,40h3a3,3,0,0,0,3-3V3a3,3,0,0,0-3-3ZM43,7a1,1,0,0,1-1-1V4a1,1,0,0,1,1-1h2a1,1,0,0,1,1,1V6a1,1,0,0,1-1,1ZM37,7a1,1,0,0,1-1-1V4a1,1,0,0,1,1-1h2a1,1,0,0,1,1,1V6a1,1,0,0,1-1,1ZM31,7a1,1,0,0,1-1-1V4a1,1,0,0,1,1-1h2a1,1,0,0,1,1,1V6a1,1,0,0,1-1,1Z" />
</svg>
